<!-- Generator: Adobe Illustrator 22.0.0, SVG Export Plug-In  -->
<svg version="1.1"
	 xmlns="http://www.w3.org/2000/svg" xmlns:xlink="http://www.w3.org/1999/xlink" xmlns:a="http://ns.adobe.com/AdobeSVGViewerExtensions/3.0/"
	 x="0px" y="0px" width="230.2px" height="367.5px" viewBox="0 0 230.2 367.5" style="enable-background:new 0 0 230.2 367.5;"
	 xml:space="preserve">
<style type="text/css">
	.st0{fill:#FF713E;}
	.st1{fill:#FFD971;}
	.st2{fill:#2C3E50;}
	.st3{fill:#FFFFFF;}
	.st4{fill:none;stroke:#2C3E50;stroke-width:4;stroke-miterlimit:10;}
</style>
<defs>
</defs>
<g id="XMLID_2_">
	<g>
		<path class="st0" d="M140.2,77.7c7,1,2,15-1.9,18.4c-1.3-1.2-2.9-2.4-4.6-3.6C133.2,87.5,133.2,76.7,140.2,77.7z"/>
		<path class="st0" d="M184.4,247.9c14.9,10.2,22.8,49.9,22.8,49.9c-11-8-24-19-24-19c8.4,9.6,15.5,52.5,14,54
			c-5-17-19.6-27.5-20-24c5,14-15,47-15,47c0-12-10-23-12.3-37l-0.6-0.2c1.7-3.9,3.3-8.1,4.9-12.7c12.9-37.3-5.9-125.8-6-136
			c-0.1-11,4.4-84.7,5-91c1.2-12-7.4-17-15-17c-6.1,0-17.6,3.5-18,19c-0.2,9.1-1.6,13.7-1,11c1.3-6.2-23.4-39-63.5-27.5
			c-8,2.3-15.5,6.1-22.1,11l-0.4-0.5c6.7-21.6,32-65,82-72c0,0-6,6.7-12.1,14.9l0.1,0.1c17-5,46-9,59,0c0,0-8.3,3.6-17.2,9.2
			c15.4,0.6,49.4-4.9,60.2,12.8c0,0-16.9,0.9-30.4,5c17.4,7.1,24.4,40,48.4,56c0,0-12.4-0.4-24.2-3.1c9,8.9,17,33.7,24.2,43.1
			c1,1.3,2.1,2.4,3.1,3c8,5-32-14-32-14l-0.5,0c8.5,18,29.5,30,29.5,30c-13.7,12.7-27.3-7-28-8c6,16,27,32,18,58
			c-3.2-9.7-26.1-40.8-26-38c5.5,17.9,20,28.3,19.1,52.8l0,0c6.9,7.5,12.9,13.2,12.9,13.2c-11,3-36-16-36-16c-2-1,28,27,27,42
			C203,260.1,186.5,249.2,184.4,247.9z"/>
		<path class="st1" d="M133.7,92.6c1.7,1.2,3.3,2.4,4.6,3.6c3.9-3.4,8.9-17.4,1.9-18.4S133.2,87.5,133.7,92.6z M100.5,96.7
			c-7.5-5-16.5-8-26.2-8c-26,0-47,21-47,47s21,47,47,47c12.5,0,23.9-4.9,32.4-12.9c9-8.6,14.6-20.7,14.6-34.1
			C121.2,119.5,113,105.2,100.5,96.7z M148.2,169.7c0.1,10.2,18.9,98.7,6,136c-1.6,4.6-3.2,8.8-4.9,12.7
			c-13.7,31.7-29.1,40.2-37.1,43.3c-21.3,8.2-92,3.3-92-17c0-8.6,1.6-13.7,5.4-16.2c4.6-3,12.5-2.1,24.8,1.4
			c1.8,0.5,3.8,1.1,5.8,1.7c31.5,9.8,44,1.9,60-23c16.8-26.2,3-119,3-119s-4.6,15.6-51.5,12.5c-4.8-0.3-9.2-0.9-13.3-1.7
			c-10.2-2-18.4-5.6-25-10.1C9.5,177,3.9,154.9,2.2,137.7c-2.1-21.9,10.8-47.3,31.4-62.5c6.6-4.9,14.1-8.8,22.1-11
			c40.1-11.5,64.8,21.3,63.5,27.5c-0.6,2.7,0.8-1.9,1-11c0.4-15.5,11.9-19,18-19c7.6,0,16.2,5,15,17
			C152.6,85.1,148.2,158.7,148.2,169.7z"/>
		<path class="st2" d="M66.7,117.2c7.2,0,13,5.8,13,13c0,7.2-5.8,13-13,13s-13-5.8-13-13C53.7,123.1,59.5,117.2,66.7,117.2z
			 M67.7,132.7c0-3.6-2.9-6.5-6.5-6.5s-6.5,2.9-6.5,6.5s2.9,6.5,6.5,6.5S67.7,136.3,67.7,132.7z"/>
	</g>
	<g>
		<path class="st4" d="M149.3,318.4c1.7-3.9,3.3-8.1,4.9-12.7c12.9-37.3-5.9-125.8-6-136c-0.1-11,4.4-84.7,5-91c1.2-12-7.4-17-15-17
			c-6.1,0-17.6,3.5-18,19c-0.2,9.1-1.6,13.7-1,11c1.3-6.2-23.4-39-63.5-27.5c-8,2.3-15.5,6.1-22.1,11C13.1,90.4,0.1,115.9,2.2,137.7
			c1.6,17.2,7.3,39.3,27.2,52.7c6.6,4.5,14.8,8,25,10.1c4.1,0.8,8.5,1.4,13.3,1.7c46.9,3.1,51.5-12.5,51.5-12.5s13.8,92.8-3,119
			c-16,24.9-28.5,32.8-60,23c-2-0.6-4-1.2-5.8-1.7c-12.3-3.5-20.2-4.4-24.8-1.4c-3.8,2.5-5.4,7.6-5.4,16.2c0,20.3,70.7,25.2,92,17
			C120.3,358.6,135.7,350.2,149.3,318.4z"/>
		<path class="st4" d="M29.2,190.7c-8.3,16,2,44,11,52c0,0,4.3-34.6,14.1-41.8"/>
		<path class="st4" d="M50.4,330c-4.2-12.3-15.2-32.3-14.2-42.3c0,0-17.3,22.6-10.6,40.8"/>
		<path class="st4" d="M33.2,74.7c6.7-21.6,32-65,82-72c0,0-6,6.7-12.1,14.9c-6.4,8.6-12.9,18.9-12.9,25.1"/>
		<path class="st4" d="M103.2,17.7c17-5,46-9,59,0c0,0-8.3,3.6-17.2,9.2c-10.5,6.6-21.8,16-21.8,25.8"/>
		<path class="st4" d="M184.2,247.7C184.2,247.7,184.3,247.8,184.2,247.7C184.3,247.8,184.3,247.8,184.2,247.7
			c0.1,0.1,0.2,0.1,0.2,0.1c2,1.4,18.6,12.2,25.8,15.9c1-15-29-43-27-42c0,0,25,19,36,16c0,0-6-5.7-12.9-13.2
			c-6.6-7.2-14.2-15.9-18.1-22.8"/>
		<path class="st4" d="M149.9,318.7c2.3,14,12.3,25,12.3,37c0,0,20-33,15-47c0.4-3.5,15,7,20,24c1.5-1.5-5.6-44.4-14-54
			c0,0,13,11,24,19c0,0-7.9-39.6-22.8-49.9"/>
		<path class="st4" d="M144.2,27c0.3,0,0.5,0,0.8,0c15.4,0.6,49.4-4.9,60.2,12.8c0,0-16.9,0.9-30.4,5c-11.6,3.6-20.6,9.7-13.6,20"/>
		<path class="st4" d="M199,97.6c-7.1-1.6-14-4.1-17.8-7.9"/>
		<path class="st4" d="M174.7,44.7c0,0,0.1,0,0.1,0c17.4,7.1,24.4,40,48.4,56c0,0-12.4-0.4-24.2-3.1"/>
		<path class="st4" d="M195.2,151.7C195.2,151.7,195.2,151.7,195.2,151.7c0.7,1,14.3,20.7,28,8c0,0-21-12-29.5-30
			c-2.5-5.2-3.9-10.9-3.5-17"/>
		<path class="st4" d="M206.3,224.5c0.9-24.4-13.6-34.9-19.1-52.8c-0.1-2.8,22.8,28.3,26,38c9-26-12-42-18-58"/>
		<path class="st4" d="M199,97.6L199,97.6c9,8.9,17,33.7,24.2,43.1c1,1.3,2.1,2.4,3.1,3c8,5-32-14-32-14"/>
		<path class="st4" d="M125.2,87.7c2.7,1.2,5.8,2.9,8.5,4.9c1.7,1.2,3.3,2.4,4.6,3.6c2.1,1.8,3.5,3.5,3.9,4.6"/>
		<path class="st4" d="M138.3,96.2c3.9-3.4,8.9-17.4,1.9-18.4s-7,9.7-6.5,14.9"/>
		<path class="st4" d="M106.6,169.8c9-8.6,14.6-20.7,14.6-34.1c0-16.2-8.2-30.6-20.8-39c-7.5-5-16.5-8-26.2-8c-26,0-47,21-47,47
			s21,47,47,47C86.8,182.7,98.2,177.8,106.6,169.8z"/>
		<path class="st4" d="M100.4,96.7C100.4,96.7,100.4,96.7,100.4,96.7c7.9,3.1,23.8,23,29.8,23"/>
		<path class="st4" d="M106.5,169.9C106.5,169.9,106.6,169.8,106.5,169.9c5.8-3.2,16.7-8.1,23.7-7.1"/>
	</g>
</g>
</svg>