<svg version="1.1"
	 xmlns="http://www.w3.org/2000/svg" xmlns:xlink="http://www.w3.org/1999/xlink" xmlns:a="http://ns.adobe.com/AdobeSVGViewerExtensions/3.0/"
	 x="0px" y="0px" width="445.5px" height="356.5px" viewBox="0 0 445.5 356.5" style="enable-background:new 0 0 445.5 356.5;"
	 xml:space="preserve">
<style type="text/css">
	.st0{fill:#C6C6C6;}
	.st1{fill:none;stroke:#2c3e50;stroke-width:10;stroke-linecap:round;stroke-miterlimit:10;}
</style>
<defs>
</defs>
<g>
	<path class="st0" d="M45,0c0.3,14.8,0.5,29.7,0.7,44.5L46.1,89c0.2,14.8,0.1,29.7,0.2,44.5l0.1,44.5l-0.1,44.5
		c-0.1,14.8,0,29.7-0.2,44.5l-0.4,44.5c-0.2,14.8-0.4,29.7-0.7,44.5c-0.3-14.8-0.5-29.7-0.7-44.5L43.8,267
		c-0.2-14.8-0.1-29.7-0.2-44.5L43.5,178l0.1-44.5c0.1-14.8,0-29.7,0.2-44.5l0.4-44.5C44.5,29.7,44.7,14.8,45,0z"/>
</g>
<g>
	<path class="st0" d="M133,0.5c0.3,14.8,0.5,29.7,0.7,44.5l0.4,44.5c0.2,14.8,0.1,29.7,0.2,44.5l0.1,44.5l-0.1,44.5
		c-0.1,14.8,0,29.7-0.2,44.5l-0.4,44.5c-0.2,14.8-0.4,29.7-0.7,44.5c-0.3-14.8-0.5-29.7-0.7-44.5l-0.4-44.5
		c-0.2-14.8-0.1-29.7-0.2-44.5l-0.1-44.5l0.1-44.5c0.1-14.8,0-29.7,0.2-44.5l0.4-44.5C132.5,30.2,132.7,15.3,133,0.5z"/>
</g>
<g>
	<path class="st0" d="M223,0.5c0.3,14.8,0.5,29.7,0.7,44.5l0.4,44.5c0.2,14.8,0.1,29.7,0.2,44.5l0.1,44.5l-0.1,44.5
		c-0.1,14.8,0,29.7-0.2,44.5l-0.4,44.5c-0.2,14.8-0.4,29.7-0.7,44.5c-0.3-14.8-0.5-29.7-0.7-44.5l-0.4-44.5
		c-0.2-14.8-0.1-29.7-0.2-44.5l-0.1-44.5l0.1-44.5c0.1-14.8,0-29.7,0.2-44.5l0.4-44.5C222.5,30.2,222.7,15.3,223,0.5z"/>
</g>
<g>
	<path class="st0" d="M312,0.5c0.3,14.8,0.5,29.7,0.7,44.5l0.4,44.5c0.2,14.8,0.1,29.7,0.2,44.5l0.1,44.5l-0.1,44.5
		c-0.1,14.8,0,29.7-0.2,44.5l-0.4,44.5c-0.2,14.8-0.4,29.7-0.7,44.5c-0.3-14.8-0.5-29.7-0.7-44.5l-0.4-44.5
		c-0.2-14.8-0.1-29.7-0.2-44.5l-0.1-44.5l0.1-44.5c0.1-14.8,0-29.7,0.2-44.5l0.4-44.5C311.5,30.2,311.7,15.3,312,0.5z"/>
</g>
<g>
	<path class="st0" d="M401,0.5c0.3,14.8,0.5,29.7,0.7,44.5l0.4,44.5c0.2,14.8,0.1,29.7,0.2,44.5l0.1,44.5l-0.1,44.5
		c-0.1,14.8,0,29.7-0.2,44.5l-0.4,44.5c-0.2,14.8-0.4,29.7-0.7,44.5c-0.3-14.8-0.5-29.7-0.7-44.5l-0.4-44.5
		c-0.2-14.8-0.1-29.7-0.2-44.5l-0.1-44.5l0.1-44.5c0.1-14.8,0-29.7,0.2-44.5l0.4-44.5C400.5,30.2,400.7,15.3,401,0.5z"/>
</g>
<g>
	<path class="st0" d="M0,44c18.5-0.3,37.1-0.5,55.6-0.7l55.6-0.4c18.5-0.2,37.1-0.1,55.6-0.2l55.6-0.1l55.6,0.1
		c18.5,0.1,37.1,0,55.6,0.2l55.6,0.4c18.5,0.2,37.1,0.4,55.6,0.7c-18.5,0.3-37.1,0.5-55.6,0.7l-55.6,0.4
		c-18.5,0.2-37.1,0.1-55.6,0.2l-55.6,0.1l-55.6-0.1c-18.5-0.1-37.1,0-55.6-0.2l-55.6-0.4C37.1,44.5,18.5,44.3,0,44z"/>
</g>
<g>
	<path class="st0" d="M0.5,134c18.5-0.3,37.1-0.5,55.6-0.7l55.6-0.4c18.5-0.2,37.1-0.1,55.6-0.2l55.6-0.1l55.6,0.1
		c18.5,0.1,37.1,0,55.6,0.2l55.6,0.4c18.5,0.2,37.1,0.4,55.6,0.7c-18.5,0.3-37.1,0.5-55.6,0.7l-55.6,0.4
		c-18.5,0.2-37.1,0.1-55.6,0.2l-55.6,0.1l-55.6-0.1c-18.5-0.1-37.1,0-55.6-0.2l-55.6-0.4C37.6,134.5,19,134.3,0.5,134z"/>
</g>
<g>
	<path class="st0" d="M0.5,222c18.5-0.3,37.1-0.5,55.6-0.7l55.6-0.4c18.5-0.2,37.1-0.1,55.6-0.2l55.6-0.1l55.6,0.1
		c18.5,0.1,37.1,0,55.6,0.2l55.6,0.4c18.5,0.2,37.1,0.4,55.6,0.7c-18.5,0.3-37.1,0.5-55.6,0.7l-55.6,0.4
		c-18.5,0.2-37.1,0.1-55.6,0.2l-55.6,0.1l-55.6-0.1c-18.5-0.1-37.1,0-55.6-0.2l-55.6-0.4C37.6,222.5,19,222.3,0.5,222z"/>
</g>
<g>
	<path class="st0" d="M0.5,312c18.5-0.3,37.1-0.5,55.6-0.7l55.6-0.4c18.5-0.2,37.1-0.1,55.6-0.2l55.6-0.1l55.6,0.1
		c18.5,0.1,37.1,0,55.6,0.2l55.6,0.4c18.5,0.2,37.1,0.4,55.6,0.7c-18.5,0.3-37.1,0.5-55.6,0.7l-55.6,0.4
		c-18.5,0.2-37.1,0.1-55.6,0.2l-55.6,0.1l-55.6-0.1c-18.5-0.1-37.1,0-55.6-0.2l-55.6-0.4C37.6,312.5,19,312.3,0.5,312z"/>
</g>
<path class="st1" d="M131,287c-10,37-86,28-83-20s85-45,85-45c-64,8-85.5-11.2-85-32c5-50,81-68,83-37l2,69"/>
<path class="st1" d="M131.4,167.5c0,0,17-27.6,27.6-24.5c27,8,56,1,61-5"/>
<path class="st1" d="M270,138c22,0,35.3,18.9,36,48c0.5,20.5-10,33-36,33c-22,0-41-9.6-41-40C229,157,243,138,270,138z"/>
<path class="st1" d="M315,138c13.5,45.5-7,71,3,79c11.2,8.9,27-18,40-17c12,0.9,25,23,37,18c9.5-4-5-43-4-80c1.2-43.3,19-90.8-12-90
	c-19.7,0.5-35,36-11,41"/>
<path class="st1" d="M133.5,172.5c-1.2-3.3,13.2,28,1,48"/>
</svg>
